<?xml version="1.0" standalone="no"?>
<!DOCTYPE svg PUBLIC "-//W3C//DTD SVG 20010904//EN"
 "http://www.w3.org/TR/2001/REC-SVG-20010904/DTD/svg10.dtd">
<svg version="1.0" xmlns="http://www.w3.org/2000/svg"
 width="1350.000000pt" height="1284.000000pt" viewBox="0 0 1350.000000 1284.000000"
 preserveAspectRatio="xMidYMid meet">
<metadata>
Created by potrace 1.10, written by Peter Selinger 2001-2011
</metadata>
<g transform="translate(0.000000,1284.000000) scale(0.100000,-0.100000)"
fill="#000000" stroke="none">
<path d="M8460 11715 c-8 -2 -67 -8 -130 -15 -144 -14 -238 -35 -413 -91 -37
-12 -70 -26 -73 -30 -3 -5 -11 -9 -19 -9 -13 0 -128 -53 -180 -83 -93 -53
-133 -80 -220 -146 -301 -226 -522 -539 -634 -896 -65 -205 -81 -316 -81 -549
0 -263 23 -395 115 -656 24 -67 113 -245 151 -302 19 -28 34 -52 34 -55 0 -13
132 -174 206 -253 73 -77 287 -252 334 -273 8 -4 29 -16 45 -27 63 -41 296
-150 321 -150 7 0 28 -6 46 -14 35 -15 101 -33 233 -62 116 -27 544 -27 660 0
132 29 198 47 233 62 18 8 38 14 46 14 28 0 221 91 321 152 17 10 37 21 45 25
27 12 174 125 249 192 92 82 205 209 268 304 26 40 50 76 52 81 2 5 14 24 26
41 31 47 108 208 138 290 32 90 39 112 47 145 4 19 12 55 19 80 45 187 57 503
25 684 -45 255 -120 457 -249 674 -62 104 -174 243 -278 345 -69 67 -266 227
-281 227 -3 0 -24 13 -48 28 -24 16 -88 50 -143 77 -55 26 -112 54 -127 61
-14 8 -33 14 -42 14 -8 0 -30 6 -48 14 -117 49 -329 87 -553 100 -44 3 -87 3
-95 1z"/>
<path d="M4130 10875 c-8 -2 -51 -9 -95 -15 -44 -7 -110 -21 -146 -32 -144
-42 -321 -155 -418 -266 -135 -157 -271 -449 -271 -584 0 -31 -4 -59 -10 -63
-5 -3 -32 10 -60 30 -27 19 -56 35 -63 35 -7 0 -18 5 -23 10 -28 28 -278 69
-420 70 -81 0 -254 -24 -283 -39 -11 -6 -27 -11 -35 -11 -9 0 -48 -15 -88 -34
-236 -111 -409 -294 -500 -531 -45 -116 -53 -167 -52 -335 1 -188 10 -233 82
-390 34 -73 102 -169 168 -236 203 -205 391 -285 754 -319 96 -9 211 -21 255
-26 44 -6 100 -13 125 -15 91 -9 321 -49 430 -76 25 -6 63 -14 85 -18 43 -8
137 -33 188 -50 18 -5 59 -19 92 -30 87 -28 143 -49 163 -59 9 -5 51 -26 92
-46 91 -46 210 -123 210 -137 0 -5 5 -8 11 -6 7 2 12 50 14 136 3 127 10 177
53 337 24 94 87 279 121 360 7 17 18 44 25 60 25 60 45 103 125 265 88 179
155 303 228 425 7 11 17 29 23 40 6 11 19 34 30 50 121 190 177 440 152 683
-12 121 -28 184 -68 268 -52 111 -97 177 -172 256 -106 110 -227 187 -384 243
-74 26 -297 59 -338 50z"/>
<path d="M7475 7443 c-390 -15 -556 -35 -700 -84 -16 -6 -43 -14 -60 -19 -16
-5 -55 -18 -85 -30 -30 -12 -64 -24 -74 -27 -17 -5 -147 -71 -226 -115 -52
-28 -159 -103 -279 -196 -68 -54 -176 -137 -240 -186 -64 -49 -118 -92 -121
-96 -3 -3 -42 -35 -88 -71 -46 -35 -123 -95 -172 -134 -49 -38 -137 -108 -197
-154 -59 -47 -110 -87 -113 -91 -3 -3 -44 -37 -93 -74 -48 -37 -92 -76 -98
-87 -10 -19 19 -19 1511 -19 l1521 0 22 -23 c12 -12 60 -65 107 -116 47 -52
90 -99 95 -105 6 -6 51 -56 100 -111 49 -55 92 -102 95 -105 3 -3 24 -27 48
-54 l42 -49 0 -1306 c0 -938 3 -1310 11 -1318 13 -13 51 -2 159 44 28 12 111
44 228 87 37 14 80 30 162 61 25 9 58 23 73 31 16 8 35 14 42 14 7 0 26 6 42
14 15 8 47 22 71 30 23 9 59 22 80 30 20 8 57 22 82 31 25 9 63 24 85 32 22 8
53 21 68 29 16 8 35 14 42 14 7 0 26 6 42 14 15 8 48 22 73 31 82 31 125 47
163 61 20 8 54 20 75 28 75 28 128 48 157 61 17 7 48 19 70 28 102 38 132 50
163 63 18 8 39 14 46 14 7 0 20 8 29 18 15 17 17 78 18 668 0 357 4 657 8 668
7 19 75 48 96 40 10 -4 29 -46 70 -154 7 -19 20 -54 29 -77 9 -24 23 -62 32
-85 8 -24 22 -56 30 -71 8 -16 14 -35 14 -42 0 -7 6 -26 14 -42 8 -15 22 -47
30 -70 9 -24 23 -62 32 -85 9 -24 22 -59 29 -78 7 -19 27 -71 45 -115 30 -75
41 -103 77 -200 9 -22 22 -58 30 -80 9 -22 22 -58 30 -80 8 -22 20 -49 25 -59
6 -11 14 -31 18 -45 5 -14 17 -50 28 -78 l20 -53 -25 -20 c-14 -11 -32 -20
-39 -20 -7 0 -30 -7 -51 -16 -78 -33 -99 -42 -140 -58 -24 -9 -62 -23 -85 -32
-24 -9 -56 -22 -73 -29 -16 -7 -50 -21 -75 -30 -25 -9 -58 -23 -75 -30 -30
-12 -83 -33 -160 -62 -22 -9 -53 -21 -70 -28 -16 -7 -48 -20 -70 -28 -22 -8
-76 -29 -120 -47 -44 -18 -98 -39 -120 -47 -22 -9 -53 -21 -70 -28 -16 -7 -50
-21 -75 -30 -25 -9 -58 -23 -75 -30 -30 -12 -83 -33 -160 -62 -22 -9 -53 -21
-70 -28 -16 -7 -48 -20 -70 -28 -22 -8 -76 -29 -120 -47 -44 -18 -98 -39 -120
-47 -22 -8 -53 -21 -70 -28 -16 -7 -48 -19 -70 -28 -22 -8 -76 -29 -120 -47
-44 -18 -98 -39 -120 -48 -92 -35 -144 -63 -210 -114 -223 -168 -328 -402
-281 -624 50 -233 176 -421 337 -501 93 -46 152 -61 259 -68 149 -10 280 11
420 65 30 12 71 26 90 32 19 5 40 14 45 18 6 4 21 10 35 13 14 3 50 15 80 27
30 12 66 25 80 30 14 5 50 18 80 30 30 12 66 25 80 30 14 5 50 18 80 30 30 12
66 25 80 30 14 5 50 18 80 30 30 12 66 25 80 30 14 5 50 18 80 30 107 41 135
51 155 57 11 2 34 11 50 18 17 7 49 20 73 29 23 9 60 23 82 31 22 8 58 22 80
30 22 8 58 22 80 30 22 8 58 22 80 30 22 8 57 21 78 29 20 8 73 28 117 46 44
18 96 38 115 45 68 25 116 43 195 75 44 18 98 39 120 47 22 9 54 21 70 28 17
7 50 21 75 30 25 10 59 23 75 30 17 7 50 21 75 30 25 10 60 24 77 32 18 7 49
20 68 28 19 8 51 22 70 30 194 81 289 134 357 199 72 67 136 150 154 196 3 8
9 23 14 32 23 42 49 141 58 223 13 108 -4 276 -38 370 -11 33 -25 74 -30 90
-4 17 -18 55 -30 85 -12 30 -25 66 -30 80 -5 14 -18 50 -30 80 -12 30 -25 66
-30 80 -5 14 -18 50 -30 80 -12 30 -25 69 -30 85 -5 17 -18 55 -30 85 -12 30
-25 66 -30 80 -5 14 -18 50 -30 80 -42 111 -52 136 -60 165 -4 17 -18 55 -30
85 -12 30 -25 66 -30 80 -5 14 -18 50 -30 80 -47 122 -52 136 -57 160 -3 14
-10 30 -15 37 -6 7 -14 27 -18 45 -5 18 -18 58 -30 88 -12 30 -25 66 -30 80
-5 14 -18 50 -30 80 -12 30 -25 66 -30 80 -5 14 -18 50 -30 80 -41 107 -51
135 -57 155 -2 11 -11 34 -18 50 -37 87 -45 107 -45 120 0 7 -6 26 -14 42 -28
56 -46 104 -46 121 0 10 -4 22 -8 28 -8 9 -25 52 -97 244 -8 22 -22 58 -30 80
-8 22 -22 58 -30 80 -8 22 -22 59 -31 83 -9 23 -22 56 -29 72 -12 30 -33 82
-59 153 -20 53 -75 192 -91 227 -7 17 -16 37 -19 45 -13 32 -70 127 -113 187
-67 94 -129 159 -212 223 -71 53 -252 150 -282 150 -7 0 -31 6 -54 14 -22 8
-80 21 -130 30 -80 14 -237 16 -1385 15 -896 -2 -1403 -6 -1645 -16z"/>
<path d="M3782 5487 l-262 -263 0 -551 c0 -303 3 -558 6 -567 6 -14 65 -16
574 -16 l568 0 273 271 274 272 3 536 c1 295 0 546 -3 559 l-5 22 -583 0 -583
0 -262 -263z"/>
<path d="M6477 5743 c-4 -3 -7 -263 -7 -578 l0 -571 273 -272 274 -272 549 2
549 3 3 590 2 590 -257 257 -258 258 -561 0 c-308 0 -564 -3 -567 -7z"/>
<path d="M5424 5297 c-2 -7 -3 -109 -2 -227 l3 -215 394 -3 c309 -2 396 1 403
10 9 15 11 409 2 432 -5 14 -50 16 -400 16 -311 0 -396 -3 -400 -13z"/>
<path d="M2240 4708 c-323 -53 -586 -269 -695 -568 -139 -383 -3 -796 341
-1035 34 -25 143 -78 199 -98 194 -70 435 -62 628 21 424 181 632 634 496
1080 -10 34 -23 70 -28 80 -5 9 -19 37 -31 62 -58 115 -179 248 -291 321 -181
119 -415 171 -619 137z"/>
<path d="M6020 4560 c-7 -14 -10 -92 -8 -230 l3 -210 245 -245 245 -244 195
-1 c107 0 201 -1 208 0 9 0 12 32 12 128 l0 128 -246 240 c-426 414 -448 435
-472 445 -13 5 -57 9 -97 9 -65 0 -76 -3 -85 -20z"/>
<path d="M5094 4243 c-165 -168 -321 -327 -347 -354 l-48 -47 3 -99 3 -98 221
-3 222 -2 242 241 c198 197 244 248 251 277 14 59 11 366 -3 380 -8 8 -51 12
-129 12 l-116 0 -299 -307z"/>
<path d="M7236 3842 c-4 -7 -9 -630 -6 -779 0 -16 456 -19 462 -3 2 5 1 184
-2 397 l-5 388 -222 3 c-122 1 -224 -2 -227 -6z"/>
<path d="M3957 3824 c-12 -12 -8 -753 3 -775 10 -18 23 -19 224 -19 168 0 216
3 225 14 8 9 10 122 9 397 l-3 384 -226 3 c-124 1 -228 -1 -232 -4z"/>
<path d="M4732 3248 c-8 -8 -12 -51 -12 -127 l0 -116 137 -134 c76 -73 201
-195 278 -270 77 -75 177 -171 222 -214 l83 -78 92 3 93 3 3 225 2 224 -247
248 -248 248 -195 0 c-139 0 -199 -3 -208 -12z"/>
<path d="M6253 2997 l-253 -252 0 -202 c0 -174 2 -202 16 -207 9 -3 64 -6 124
-6 l109 0 68 69 c144 145 618 634 625 645 9 13 10 168 2 190 -5 14 -34 16
-222 16 l-217 0 -252 -253z"/>
<path d="M3530 2821 c-6 -13 -10 -217 -10 -592 l0 -573 258 -258 257 -258 560
0 c308 -1 566 -1 573 0 9 0 12 121 12 573 l0 572 -278 278 -278 277 -542 0
c-525 0 -542 -1 -552 -19z"/>
<path d="M6703 2517 l-283 -282 3 -542 c1 -298 5 -544 8 -547 3 -4 268 -6 589
-6 457 -1 586 2 598 12 8 7 125 122 259 256 l243 244 0 568 c0 509 -2 568 -16
574 -9 3 -264 6 -567 6 l-552 0 -282 -283z"/>
<path d="M5427 2023 c-4 -3 -7 -102 -7 -218 0 -168 3 -215 14 -224 9 -8 123
-10 402 -9 l389 3 0 225 0 225 -396 3 c-217 1 -398 -1 -402 -5z"/>
</g>
</svg>
